HIERARCHY
ROOT Hips
{
  OFFSET 56.7865 84.163 -7.17707
  CHANNELS 6 Xposition Yposition Zposition Zrotation Xrotation Yrotation
  JOINT spine
  {
    OFFSET 0 5.95438 0.342407
    CHANNELS 3 Zrotation Xrotation Yrotation
    JOINT spine1
    {
      OFFSET 0 8.85602 0
      CHANNELS 3 Zrotation Xrotation Yrotation
      JOINT spine2
      {
        OFFSET 0 8.48567 0
        CHANNELS 3 Zrotation Xrotation Yrotation
        JOINT Neck
        {
          OFFSET 0 21.7863 1.0387
          CHANNELS 3 Zrotation Xrotation Yrotation
          JOINT Head
          {
            OFFSET 0 6.5822 0
            CHANNELS 3 Zrotation Xrotation Yrotation
            End Site
            {
              OFFSET 0 15.9326 -5.25436
            }
          }
        }
        JOINT RightShoulder
        {
          OFFSET -3.57307 9.16386 -0.497525
          CHANNELS 3 Zrotation Xrotation Yrotation
          JOINT RightArm
          {
            OFFSET 0 12.0192 0
            CHANNELS 3 Zrotation Xrotation Yrotation
            JOINT RightArmRoll
            {
              OFFSET 0 6.06755 0
              CHANNELS 3 Zrotation Xrotation Yrotation
              JOINT RightForeArm
              {
                OFFSET 0 17.6726 0
                CHANNELS 3 Zrotation Xrotation Yrotation
                JOINT RightForeArmRoll
                {
                  OFFSET 0 6.80873 0
                  CHANNELS 3 Zrotation Xrotation Yrotation
                  JOINT RightHand
                  {
                    OFFSET 0 13.6636 0
                    CHANNELS 3 Zrotation Xrotation Yrotation
                    End Site
                    {
                      OFFSET 0 0 0
                    }
                  }
                }
              }
            }
          }
        }
        JOINT LeftShoulder
        {
          OFFSET 3.57307 9.16386 -0.497525
          CHANNELS 3 Zrotation Xrotation Yrotation
          JOINT LeftArm
          {
            OFFSET 0 12.0192 0
            CHANNELS 3 Zrotation Xrotation Yrotation
            JOINT LeftArmRoll
            {
              OFFSET 0 6.06755 0
              CHANNELS 3 Zrotation Xrotation Yrotation
              JOINT LeftForeArm
              {
                OFFSET 0 17.6726 0
                CHANNELS 3 Zrotation Xrotation Yrotation
                JOINT LeftForeArmRoll
                {
                  OFFSET 0 6.80873 0
                  CHANNELS 3 Zrotation Xrotation Yrotation
                  JOINT LeftHand
                  {
                    OFFSET 0 13.6636 0
                    CHANNELS 3 Zrotation Xrotation Yrotation
                    End Site
                    {
                      OFFSET 0 0 0
                    }
                  }
                }
              }
            }
          }
        }
      }
    }
  }
  JOINT RightUpLeg
  {
    OFFSET -5.27774 -0.967797 -0.811858
    CHANNELS 3 Zrotation Xrotation Yrotation
    JOINT RightUpLegRoll
    {
      OFFSET 0 16.0214 0
      CHANNELS 3 Zrotation Xrotation Yrotation
      JOINT RightLeg
      {
        OFFSET 0 -19.8401 0
        CHANNELS 3 Zrotation Xrotation Yrotation
        JOINT RightLegRoll
        {
          OFFSET 0 19.905 0
          CHANNELS 3 Zrotation Xrotation Yrotation
          JOINT RightFoot
          {
            OFFSET 0 16.5675 0
            CHANNELS 3 Zrotation Xrotation Yrotation
            JOINT RightToeBase
            {
              OFFSET 0 13.8496 0
              CHANNELS 3 Zrotation Xrotation Yrotation
              End Site
              {
                OFFSET 0.00587034 6.70728 -0.773117
              }
            }
          }
        }
      }
    }
  }
  JOINT LeftUpLeg
  {
    OFFSET 5.27774 -0.967797 -0.811858
    CHANNELS 3 Zrotation Xrotation Yrotation
    JOINT LeftUpLegRoll
    {
      OFFSET 0 16.0215 0
      CHANNELS 3 Zrotation Xrotation Yrotation
      JOINT LeftLeg
      {
        OFFSET 0 19.84 0
        CHANNELS 3 Zrotation Xrotation Yrotation
        JOINT LeftLegRoll
        {
          OFFSET 0 20.089 0
          CHANNELS 3 Zrotation Xrotation Yrotation
          JOINT LeftFoot
          {
            OFFSET 0 16.3835 0
            CHANNELS 3 Zrotation Xrotation Yrotation
            JOINT LeftToeBase
            {
              OFFSET 0 13.8496 0
              CHANNELS 3 Zrotation Xrotation Yrotation
              End Site
              {
                OFFSET -0.0263083 6.70727 -0.773117
              }
            }
          }
        }
      }
    }
  }
}
MOTION
Frames: 4
Frame Time: 0.00208333
51.9644 90.6591 -5.69574 0.0362884 -1.67944 5.533 -0.644057 -0.907922 0.0127929 -1.28862 2.18612 0.100165 -1.29105 3.83095 0.118002 -11.1875 20.0161 -11.5773 24.2781 -21.9641 -9.36321 50.4217 -12.6926 -8.34241 81.3648 -3.43056 21.3315 4.17673e-006 3.45775e-006 -2.04995e-006 -3.99579 25.7006 -1.27081 -1.17844e-007 2.04457e-006 -3 8.03011 -4.95137 0.697625 -48.7977 -0.729233 -0.867876 -87.4274 6.24772 -12.8703 -1.09829e-014 -1.88845e-015 -3.18055e-015 4.16525 32.128 1.0465 -2.16638e-005 2.85027e-007 3 -8.03011 -4.95137 -0.697636 -179.416 6.18348 0.202424 180 7.01518e-015 178.804 -177.929 24.8948 178.382 2.79087e-006 2.9299e-007 0.463574 -19.7568 69.4808 20.8435 8.13649 25.2327 -3.48774 179.72 5.59323 0.795835 4.54188e-006 -4.6773e-006 -1.17403 -0.955837 -21.8433 0.525164 -6.41127e-007 1.71655e-006 -0.238059 17.6265 66.7165 -18.5338 -8.13649 25.2327 3.48774 
51.9734 90.5466 -5.73989 -0.0561586 -1.74119 5.51225 -0.634043 -0.898696 0.0149456 -1.26859 2.20457 0.103217 -1.27105 3.84941 0.121419 -10.756 20.1258 -11.6478 24.0046 -22.1246 -9.31134 51.7206 -12.4504 -8.11602 80.9921 -3.36592 21.6256 4.17673e-006 3.45775e-006 -2.04995e-006 -3.9822 25.0795 -1.29165 -1.17844e-007 2.04457e-006 -3 8.03011 -4.95137 0.697625 -48.8486 -0.707612 -0.878904 -88.3804 5.9544 -12.0697 9.0447e-015 3.97569e-016 -3.18055e-015 4.15874 31.9001 1.05581 -2.16638e-005 2.85027e-007 3 -8.03011 -4.95137 -0.697636 -179.113 6.14289 0.0479197 180 7.01517e-015 178.8 -177.892 25.0462 178.362 2.79087e-006 2.9299e-007 0.466264 -19.7568 69.4834 20.8458 8.13649 25.2327 -3.48774 179.649 5.64176 0.809017 4.54188e-006 -4.6773e-006 -1.17638 -0.959962 -22.1947 0.533766 -6.41127e-007 1.71655e-006 -0.245939 17.6573 66.7654 -18.57 -8.13649 25.2327 3.48774 
51.9287 90.4014 -5.77596 -0.141707 -1.80342 5.49559 -0.625148 -0.889751 0.0169226 -1.2508 2.22246 0.10605 -1.25329 3.8673 0.124633 -10.3245 20.2499 -11.7201 23.7312 -22.2992 -9.25914 52.9822 -12.2198 -7.90238 80.6445 -3.30064 21.8972 4.17673e-006 3.45775e-006 -2.04995e-006 -3.96937 24.4755 -1.31177 -1.17844e-007 2.04457e-006 -3 8.03011 -4.95137 0.697625 -48.9081 -0.675285 -0.896307 -89.3064 5.67562 -11.2893 7.23079e-015 -4.96962e-016 -1.59028e-015 4.15088 31.6295 1.06634 -2.16638e-005 2.85027e-007 3 -8.03011 -4.95137 -0.697636 -178.824 6.09759 -0.0982166 180 7.01516e-015 178.795 -177.854 25.1956 178.342 2.79087e-006 2.9299e-007 0.468937 -19.7568 69.486 20.8482 8.13649 25.2327 -3.48774 179.574 5.68917 0.826191 4.54188e-006 -4.6773e-006 -1.17873 -0.962541 -22.5439 0.542392 -6.41127e-007 1.71655e-006 -0.253619 17.687 66.8121 -18.6049 -8.13649 25.2327 3.48774 
51.9361 90.2848 -5.82444 -0.218594 -1.86556 5.48315 -0.617545 -0.881302 0.0186776 -1.2356 2.23936 0.108592 -1.23812 3.8842 0.127563 -9.89742 20.3904 -11.7933 23.4605 -22.4885 -9.20683 54.1945 -12.0038 -7.7032 80.3326 -3.2364 22.1376 4.17673e-006 3.45775e-006 -2.04995e-006 -3.95737 23.8928 -1.33106 -1.17844e-007 2.04457e-006 -3 8.03011 -4.95137 0.697625 -48.979 -0.631939 -0.919726 -90.2017 5.41807 -10.5319 -1.0871e-014 -6.60959e-015 -4.77083e-015 4.1414 31.3058 1.07841 -2.16638e-005 2.85027e-007 3 -8.03011 -4.95137 -0.697636 -178.555 6.04816 -0.234015 180 7.01515e-015 178.791 -177.818 25.3437 178.322 2.79087e-006 2.9299e-007 0.471666 -19.7574 69.4894 20.8512 8.13649 25.2327 -3.48774 179.491 5.73474 0.847993 4.54188e-006 -4.6773e-006 -1.18104 -0.964348 -22.8891 0.550876 -6.41127e-007 1.71655e-006 -0.261068 17.715 66.8559 -18.6377 -8.13649 25.2327 3.48774 
